HIERARCHY
ROOT hip
{
	OFFSET 0.000000 0.000000 0.000000 
	CHANNELS 6 Xposition Yposition Zposition Xrotation Zrotation Yrotation
	JOINT abdomen
	{
		OFFSET 0.000000 3.402643 0.000000 
		CHANNELS 3 Xrotation Zrotation Yrotation
		JOINT chest
		{
			OFFSET 0.000000 8.438565 -0.680529 
			CHANNELS 3 Xrotation Zrotation Yrotation
			JOINT neck
			{
				OFFSET 0.000000 10.207942 -0.272212 
				CHANNELS 3 Xrotation Zrotation Yrotation
				JOINT head
				{
					OFFSET 0.000000 3.130431 0.000000 
					CHANNELS 3 Xrotation Zrotation Yrotation
					End Site
					{
						OFFSET 0.000000 3.130435 0.000000 
					}
				}
			}
			JOINT lCollar
			{
				OFFSET 3.470700 6.669187 -0.816635 
				CHANNELS 3 Yrotation Zrotation Xrotation
				JOINT lShldr
				{
					OFFSET 3.198488 0.000000 0.000000 
					CHANNELS 3 Zrotation Yrotation Xrotation
					JOINT lForeArm
					{
						OFFSET 10.139888 0.000000 0.000000 
						CHANNELS 3 Yrotation Zrotation Xrotation
						JOINT lHand
						{
							OFFSET 8.370511 0.000000 0.000000 
							CHANNELS 3 Zrotation Yrotation Xrotation
							End Site
							{
								OFFSET 4.083176 0.000000 0.000000 
							}
						}
					}
				}
			}
			JOINT rCollar
			{
				OFFSET -3.470700 6.669187 -0.816635 
				CHANNELS 3 Yrotation Zrotation Xrotation
				JOINT rShldr
				{
					OFFSET -3.198488 0.000000 0.000000 
					CHANNELS 3 Zrotation Yrotation Xrotation
					JOINT rForeArm
					{
						OFFSET -10.139888 0.000000 0.000000 
						CHANNELS 3 Yrotation Zrotation Xrotation
						JOINT rHand
						{
							OFFSET -8.370511 0.000000 0.000000 
							CHANNELS 3 Zrotation Yrotation Xrotation
							End Site
							{
								OFFSET -4.083176 0.000000 0.000000 
							}
						}
					}
				}
			}
		}
	}
	JOINT lThigh
	{
		OFFSET 5.308129 -1.633274 1.361059 
		CHANNELS 3 Xrotation Zrotation Yrotation
		JOINT lShin
		{
			OFFSET -2.041588 -20.007561 0.000000 
			CHANNELS 3 Xrotation Zrotation Yrotation
			JOINT lFoot
			{
				OFFSET 0.000000 -19.190928 -1.224953 
				CHANNELS 3 Xrotation Yrotation Zrotation
				End Site
				{
					OFFSET 0.000000 -2.449906 4.627600 
				}
			}
		}
	}
	JOINT rThigh
	{
		OFFSET -5.308129 -1.633274 1.361059 
		CHANNELS 3 Xrotation Zrotation Yrotation
		JOINT rShin
		{
			OFFSET 2.041588 -20.007561 0.000000 
			CHANNELS 3 Xrotation Zrotation Yrotation
			JOINT rFoot
			{
				OFFSET 0.000000 -19.190928 -1.224953 
				CHANNELS 3 Xrotation Yrotation Zrotation
				End Site
				{
					OFFSET 0.000000 -2.449906 4.627600 
				}
			}
		}
	}
}
MOTION
Frames: 18
Frame Time: 0.066667
-0.000259 40.992298 -0.065304 0.000000 0.000000 0.000000 0.000000 0.000000 0.000000 0.000000 0.000000 0.000000 0.000000 0.000000 0.000000 0.000000 0.000000 0.000000 2.021920 -5.690310 -0.063351 -42.331451 30.122858 21.742556 -73.187912 -20.619417 -12.664969 -18.057875 10.992988 -12.288630 -2.021920 5.690310 -0.063351 44.830597 -31.010050 22.083652 69.833801 20.380661 -11.530135 20.500595 -6.896393 -11.278655 -14.567226 4.295753 0.240425 29.368277 -3.848200 -2.171592 -15.066643 0.978629 -0.163683 -14.572109 -4.831408 -0.127276 29.359909 3.695474 2.036771 -15.151767 -1.603219 0.441192 
0.006739 41.085964 0.030897 0.000000 0.000000 0.000000 -0.242417 0.000000 0.000000 0.000000 0.000000 0.000000 0.969667 0.000000 0.000000 -0.643179 0.000000 -0.395995 2.021920 -5.690310 -0.063351 -43.019997 30.853821 22.390961 -67.345261 -19.986040 -11.289976 -18.031061 7.143957 -10.399983 -2.021920 5.690310 -0.063351 45.804729 -32.191044 22.739782 62.148273 20.012609 -10.554276 19.879198 -4.147217 -9.407591 -13.401567 4.179159 0.196498 27.256784 -3.703139 -2.009738 -14.149036 1.081301 -0.295643 -13.408559 -4.738739 -0.097446 27.245335 3.591814 1.857270 -14.209668 -1.680311 0.542519 
0.015343 41.198689 0.142492 0.000000 0.000000 0.000000 -0.543359 0.000000 0.000000 0.000000 0.000000 0.000000 2.173434 0.000000 0.000000 -1.420075 0.000000 -0.995130 2.021920 -5.690310 -0.063351 -43.752831 31.737026 23.197376 -60.454063 -19.254692 -9.646701 -17.979870 2.572375 -8.152661 -2.021920 5.690310 -0.063351 46.864925 -33.662849 23.590199 52.910324 19.632124 -9.424890 19.099083 -0.954613 -7.198907 -12.630443 4.095553 0.173113 26.007265 -3.596300 -1.934293 -13.699943 1.183579 -0.375566 -12.601125 -4.683213 -0.056042 25.877586 3.498527 1.738690 -13.659906 -1.750789 0.620596 
0.023630 41.316502 0.275394 0.000000 0.000000 0.000000 -0.821700 0.000000 0.000000 0.000000 0.000000 0.000000 3.286799 0.000000 0.000000 -2.224396 0.000000 -1.143928 2.021920 -5.690310 -0.063351 -44.873150 32.641819 23.937895 -52.766781 -18.378912 -7.895785 -17.997496 -2.405908 -5.721085 -2.021920 5.690310 -0.063351 48.386597 -35.003456 24.246548 43.266472 19.002905 -8.082515 18.409124 2.797579 -4.742070 -11.660775 4.009772 0.160692 24.463697 -3.483255 -1.810522 -13.136962 1.229451 -0.473702 -11.677361 -4.639621 -0.039084 24.477016 3.431245 1.616233 -13.203639 -1.774991 0.693006 
0.029944 41.433372 0.451217 0.000000 0.000000 0.000000 -1.000000 0.000000 0.000000 0.000000 0.000000 0.000000 4.000000 0.000000 0.000000 -3.000000 0.000000 0.000000 2.021920 -5.690310 -0.063351 -46.950783 33.491592 24.395847 -43.805382 -17.205227 -6.064105 -18.208458 -7.899927 -3.078514 -2.021920 5.690310 -0.063351 51.024254 -35.798679 24.266848 33.709229 17.747593 -6.307382 18.064169 7.657773 -1.895860 -10.686584 3.951957 0.146177 23.041861 -3.420408 -1.688488 -12.703855 1.244530 -0.535463 -10.707328 -4.609505 -0.028750 22.994225 3.393222 1.456376 -12.681218 -1.774351 0.760005 
0.033044 41.544090 0.685665 0.000000 0.000000 0.000000 -1.032480 0.000000 0.000000 0.000000 0.000000 0.000000 4.129919 0.000000 0.000000 -3.700707 0.000000 2.981894 2.021920 -5.690310 -0.063351 -49.928089 34.159107 24.448008 -34.124546 -15.828769 -4.382828 -18.625774 -13.275431 -0.537928 -2.021920 5.690310 -0.063351 54.660946 -35.822998 23.511003 25.396132 15.901446 -4.247019 18.185490 13.205486 1.037912 -9.606263 3.901831 0.136394 21.558783 -3.369515 -1.547028 -12.311996 1.237213 -0.589353 -9.601794 -4.564954 -0.023813 21.482492 3.336555 1.312261 -12.277978 -1.765583 0.825781 
0.033359 41.646793 0.970782 0.000000 0.000000 0.000000 -1.000000 0.000000 0.000000 0.000000 0.000000 0.000000 4.000000 0.000000 0.000000 -4.320870 0.000000 7.158385 2.021920 -5.690310 -0.063351 -51.237427 34.314533 24.344856 -28.409842 -15.339047 -3.900293 -18.816395 -14.925015 0.228839 -2.021920 5.690310 -0.063351 56.093685 -35.605354 23.046419 22.144815 15.150153 -3.518145 18.360044 15.144616 1.985312 -8.448438 3.852914 0.112322 20.133410 -3.320124 -1.411605 -12.037189 1.236615 -0.650985 -8.443372 -4.517721 -0.026611 20.067644 3.284146 1.177447 -12.022829 -1.755419 0.869844 
0.031737 41.740463 1.292701 0.000000 0.000000 0.000000 -0.991301 0.000000 0.000000 0.000000 0.000000 0.000000 3.965203 0.000000 0.000000 -4.864906 0.000000 11.588959 2.021920 -5.690310 -0.063351 -49.043556 33.817947 24.348745 -30.057076 -16.428291 -5.184398 -18.469398 -10.780025 -1.723916 -2.021920 5.690310 -0.063351 53.169861 -35.673851 23.717209 26.055769 16.644793 -5.144335 18.213938 10.775244 -0.289247 -7.296954 3.808582 0.097759 18.748360 -3.254904 -1.287883 -11.812005 1.230314 -0.702903 -7.252542 -4.470295 -0.036992 18.632507 3.223398 1.051518 -11.786949 -1.748127 0.913578 
0.029024 41.824078 1.637553 0.000000 0.000000 0.000000 -1.000000 0.000000 0.000000 0.000000 0.000000 0.000000 4.000000 0.000000 0.000000 -5.337126 0.000000 15.333096 2.021920 -5.690310 -0.063351 -46.950775 33.491596 24.395849 -33.172279 -17.205227 -6.064105 -18.208458 -7.899926 -3.078515 -2.021920 5.690310 -0.063351 51.024254 -35.798679 24.266848 29.700905 17.747591 -6.307381 18.064169 7.657773 -1.895860 -6.018285 3.764982 0.077370 17.251450 -3.199679 -1.140722 -11.596104 1.228959 -0.763960 -6.059710 -4.424530 -0.036438 17.243151 3.178003 0.913263 -11.591909 -1.731413 0.966818 
0.026066 41.896606 1.991470 0.000000 0.000000 0.000000 -1.002317 0.000000 0.000000 0.000000 0.000000 0.000000 4.009268 0.000000 0.000000 -5.741735 0.000000 17.450281 2.021920 -5.690310 -0.063351 -48.246544 33.990074 24.380360 -32.073433 -16.088469 -4.768785 -18.572514 -12.085689 -1.114198 -2.021920 5.690310 -0.063351 54.015507 -35.693115 23.561459 26.738869 16.209867 -4.649035 18.231943 12.109898 0.385218 -4.850642 3.720255 0.060619 15.914616 -3.120593 -1.032060 -11.437840 1.239424 -0.823186 -4.860820 -4.397773 -0.035430 15.914846 3.164442 0.784160 -11.458105 -1.701172 0.981749 
0.023710 41.957031 2.340584 0.000000 0.000000 0.000000 -1.000000 0.000000 0.000000 0.000000 0.000000 0.000000 4.000000 0.000000 0.000000 -6.082830 0.000000 17.000000 2.021920 -5.690310 -0.063351 -49.511368 34.335129 24.354715 -31.216133 -15.319669 -3.868373 -18.827021 -14.976185 0.238721 -2.021920 5.690310 -0.063351 56.110344 -35.600590 23.058363 24.703852 15.128181 -3.492660 18.364401 15.218121 1.967567 -4.069251 3.854725 0.053083 15.716523 -3.172066 -0.996065 -12.019375 1.218500 -0.926562 -4.018046 -4.268292 -0.023060 15.548854 3.100787 0.752603 -11.936100 -1.740779 0.941117 
0.022614 42.004761 2.673515 0.000000 0.000000 0.000000 -0.999431 0.000000 0.000000 0.000000 0.000000 0.000000 3.997724 0.000000 0.000000 -6.364402 0.000000 13.363604 2.021920 -5.690310 -0.063351 -47.572556 33.704422 24.380445 -34.863579 -16.794987 -5.533065 -18.346081 -9.510770 -2.338055 -2.021920 5.690310 -0.063351 52.174721 -35.752113 24.015381 30.255207 17.140644 -5.657907 18.145641 9.420830 -1.033798 -3.672854 3.591626 0.039363 15.737794 -3.108595 -1.019015 -12.434631 1.286870 -0.709473 -3.612864 -4.527207 -0.037079 15.558730 3.153802 0.749764 -12.337193 -1.694081 1.154860 
0.022684 42.040924 2.988836 0.000000 0.000000 0.000000 -1.000000 0.000000 0.000000 0.000000 0.000000 0.000000 4.000000 0.000000 0.000000 -6.590335 0.000000 7.209916 2.021920 -5.690310 -0.063351 -46.951542 33.532112 24.397163 -36.371738 -17.205553 -5.993508 -18.211832 -7.992868 -3.063682 -2.021920 5.690310 -0.063351 51.063354 -35.798649 24.301096 32.677277 17.706329 -6.267941 18.081657 7.795164 -1.891956 -3.158323 3.862517 0.047803 15.706032 -3.173103 -1.005270 -12.908832 1.255913 -0.922547 -3.103389 -4.256107 -0.001016 15.528662 3.105638 0.732402 -12.824089 -1.738642 0.937447 
0.023637 42.067085 3.287609 0.000000 0.000000 0.000000 -1.000000 0.000000 0.000000 0.000000 0.000000 0.000000 4.000000 0.000000 0.000000 -6.764404 0.000000 -0.470364 2.021920 -5.690310 -0.063351 -49.507641 34.367409 24.374365 -33.499466 -15.299516 -3.808254 -18.837563 -15.091851 0.259433 -2.021920 5.690310 -0.063351 56.148804 -35.599682 23.101868 28.029850 15.090601 -3.458313 18.377787 15.327561 1.947400 -2.546106 3.769590 0.050351 15.559607 -3.157843 -0.993741 -13.378804 1.266193 -0.838025 -2.553675 -4.326663 0.015453 15.450936 3.149675 0.712937 -13.285528 -1.751598 0.997286 
0.025190 42.084808 3.570895 0.000000 0.000000 0.000000 -1.000000 0.000000 0.000000 0.000000 0.000000 0.000000 4.000000 0.000000 0.000000 -6.890279 0.000000 -8.686537 2.021920 -5.690310 -0.063351 -46.952190 33.572407 24.418051 -38.971329 -17.185450 -5.920504 -18.230640 -8.098764 -3.035490 -2.021920 5.690310 -0.063351 51.091347 -35.796139 24.348770 35.946274 17.667980 -6.216280 18.109661 7.906057 -1.930624 -1.796069 3.770880 0.050777 14.945673 -3.138704 -0.941107 -13.505573 1.274398 -0.855160 -1.822508 -4.356344 0.038940 14.958000 3.173843 0.663260 -13.523480 -1.739380 1.024458 
0.027061 42.095650 3.839756 0.000000 0.000000 0.000000 -1.000000 0.000000 0.000000 0.000000 0.000000 0.000000 4.000000 0.000000 0.000000 -6.971517 0.000000 -16.447908 2.021920 -5.690310 -0.063351 -49.508789 34.408554 24.394091 -35.790516 -15.261117 -3.743187 -18.858076 -15.210570 0.284557 -2.021920 5.690310 -0.063351 56.187393 -35.598801 23.135592 30.560951 15.052306 -3.413388 18.387112 15.457133 1.931090 -1.124403 3.767987 0.043605 14.420887 -3.121117 -0.884951 -13.631931 1.287036 -0.881506 -1.167741 -4.333697 0.062362 14.447000 3.140420 0.586949 -13.669477 -1.753003 1.059619 
0.028968 42.101177 4.095254 0.000000 0.000000 0.000000 -1.000000 0.000000 0.000000 0.000000 0.000000 0.000000 4.000000 0.000000 0.000000 -7.011572 0.000000 -22.763781 2.021920 -5.690310 -0.063351 -46.952869 33.612823 24.429132 -43.176193 -17.176863 -5.856393 -18.225534 -8.184731 -3.011435 -2.021920 5.690310 -0.063351 51.130245 -35.795963 24.402557 41.802326 17.619980 -6.167955 18.128744 8.036629 -1.957155 -0.464807 3.767637 0.018149 13.912747 -3.119129 -0.812366 -13.788229 1.294156 -0.888627 -0.508672 -4.322178 0.095715 13.927742 3.139735 0.533211 -13.806795 -1.757252 1.076519 
0.030627 42.102951 4.338450 0.000000 0.000000 0.000000 -1.000000 0.000000 0.000000 0.000000 0.000000 0.000000 4.000000 0.000000 0.000000 -7.013786 0.000000 -26.643456 2.021920 -5.690310 -0.063351 -49.509941 34.449673 24.413832 -40.050438 -15.240892 -3.673402 -18.868021 -15.326096 0.285872 -2.021920 5.690310 -0.063351 56.225849 -35.597885 23.179085 35.316559 15.013844 -3.364903 18.407974 15.603470 1.908960 0.151253 3.773188 0.004236 13.443955 -3.118004 -0.732734 -13.927717 1.270197 -0.919098 0.106344 -4.300940 0.118111 13.490003 3.130690 0.474112 -13.982650 -1.768234 1.091963 
